<svg width="24" height="24" viewBox="0 0 24 24" fill="none" xmlns="http://www.w3.org/2000/svg">
<path d="M12 15.75C10.56 15.75 9.12 14.4375 8.4 13.875C4.8 11.25 3.72 10.3125 3 9.75V17.625C3 18.6604 3.80606 19.5 4.8 19.5H19.2C20.1939 19.5 21 18.6604 21 17.625V9.75C20.28 10.3125 19.2 11.25 15.6 13.875C14.88 14.4375 13.44 15.75 12 15.75ZM19.2 4.5H4.8C3.80606 4.5 3 5.33965 3 6.375V7.3125C4.44 8.4375 4.26 8.4375 9.48 12.375C10.02 12.75 11.1 13.875 12 13.875C12.9 13.875 13.98 12.75 14.52 12.5625C19.74 8.625 19.56 8.625 21 7.5V6.375C21 5.33965 20.1939 4.5 19.2 4.5Z" fill="#1C1C1C"/>
</svg>
