<svg width="20" height="20" viewBox="0 0 20 20" fill="none" xmlns="http://www.w3.org/2000/svg">
<path d="M4.34674 12.5724C4.34674 13.6998 3.42571 14.6208 2.29837 14.6208C1.17103 14.6208 0.25 13.6998 0.25 12.5724C0.25 11.4451 1.17103 10.5241 2.29837 10.5241H4.34674V12.5724ZM5.3792 12.5724C5.3792 11.4451 6.30022 10.5241 7.42757 10.5241C8.55491 10.5241 9.47594 11.4451 9.47594 12.5724V17.7016C9.47594 18.829 8.55491 19.75 7.42757 19.75C6.30022 19.75 5.3792 18.829 5.3792 17.7016V12.5724ZM7.42757 4.34674C6.30022 4.34674 5.3792 3.42571 5.3792 2.29837C5.3792 1.17103 6.30022 0.25 7.42757 0.25C8.55491 0.25 9.47594 1.17103 9.47594 2.29837V4.34674H7.42757ZM7.42757 5.3792C8.55491 5.3792 9.47594 6.30022 9.47594 7.42757C9.47594 8.55491 8.55491 9.47594 7.42757 9.47594H2.29837C1.17103 9.47594 0.25 8.55491 0.25 7.42757C0.25 6.30022 1.17103 5.3792 2.29837 5.3792H7.42757ZM15.6533 7.42757C15.6533 6.30022 16.5743 5.3792 17.7016 5.3792C18.829 5.3792 19.75 6.30022 19.75 7.42757C19.75 8.55491 18.829 9.47594 17.7016 9.47594H15.6533V7.42757ZM14.6208 7.42757C14.6208 8.55491 13.6998 9.47594 12.5724 9.47594C11.4451 9.47594 10.5241 8.55491 10.5241 7.42757V2.29837C10.5241 1.17103 11.4451 0.25 12.5724 0.25C13.6998 0.25 14.6208 1.17103 14.6208 2.29837V7.42757ZM12.5724 15.6533C13.6998 15.6533 14.6208 16.5743 14.6208 17.7016C14.6208 18.829 13.6998 19.75 12.5724 19.75C11.4451 19.75 10.5241 18.829 10.5241 17.7016V15.6533H12.5724ZM12.5724 14.6208C11.4451 14.6208 10.5241 13.6998 10.5241 12.5724C10.5241 11.4451 11.4451 10.5241 12.5724 10.5241H17.7016C18.829 10.5241 19.75 11.4451 19.75 12.5724C19.75 13.6998 18.829 14.6208 17.7016 14.6208H12.5724Z" fill="#333333"/>
</svg>
