<svg width="26" height="26" viewBox="0 0 26 26" fill="none" xmlns="http://www.w3.org/2000/svg">
<path d="M7.34674 15.5724C7.34674 16.6998 6.42571 17.6208 5.29837 17.6208C4.17103 17.6208 3.25 16.6998 3.25 15.5724C3.25 14.4451 4.17103 13.5241 5.29837 13.5241H7.34674V15.5724ZM8.3792 15.5724C8.3792 14.4451 9.30022 13.5241 10.4276 13.5241C11.5549 13.5241 12.4759 14.4451 12.4759 15.5724V20.7016C12.4759 21.829 11.5549 22.75 10.4276 22.75C9.30022 22.75 8.3792 21.829 8.3792 20.7016V15.5724ZM10.4276 7.34674C9.30022 7.34674 8.3792 6.42571 8.3792 5.29837C8.3792 4.17103 9.30022 3.25 10.4276 3.25C11.5549 3.25 12.4759 4.17103 12.4759 5.29837V7.34674H10.4276ZM10.4276 8.3792C11.5549 8.3792 12.4759 9.30022 12.4759 10.4276C12.4759 11.5549 11.5549 12.4759 10.4276 12.4759H5.29837C4.17103 12.4759 3.25 11.5549 3.25 10.4276C3.25 9.30022 4.17103 8.3792 5.29837 8.3792H10.4276ZM18.6533 10.4276C18.6533 9.30022 19.5743 8.3792 20.7016 8.3792C21.829 8.3792 22.75 9.30022 22.75 10.4276C22.75 11.5549 21.829 12.4759 20.7016 12.4759H18.6533V10.4276ZM17.6208 10.4276C17.6208 11.5549 16.6998 12.4759 15.5724 12.4759C14.4451 12.4759 13.5241 11.5549 13.5241 10.4276V5.29837C13.5241 4.17103 14.4451 3.25 15.5724 3.25C16.6998 3.25 17.6208 4.17103 17.6208 5.29837V10.4276ZM15.5724 18.6533C16.6998 18.6533 17.6208 19.5743 17.6208 20.7016C17.6208 21.829 16.6998 22.75 15.5724 22.75C14.4451 22.75 13.5241 21.829 13.5241 20.7016V18.6533H15.5724ZM15.5724 17.6208C14.4451 17.6208 13.5241 16.6998 13.5241 15.5724C13.5241 14.4451 14.4451 13.5241 15.5724 13.5241H20.7016C21.829 13.5241 22.75 14.4451 22.75 15.5724C22.75 16.6998 21.829 17.6208 20.7016 17.6208H15.5724Z" fill="white"/>
</svg>
